<svg width="1080" height="1080" viewBox="0 0 1080 1080" fill="none" xmlns="http://www.w3.org/2000/svg">
<path d="M485.001 605.5C507.401 579.1 520.667 581.166 524.501 585.5C541.701 583.097 514.667 616.499 499 633.5L481 682.5L470.5 701.5L460 712L440 744C423.167 761.667 388.9 796.3 386.5 793.5C383.5 790 384.5 787.5 383 780.5C381.5 773.5 380 773 379 771C378 769 373.5 769 371.5 768.5C369.9 768.1 358.167 765 352.5 763.5C348.5 760.667 339.801 754.2 337.001 751C333.501 747 339.001 746.5 340.501 744C342.001 741.5 347.001 740 350.501 737C353.301 734.6 368.667 725.667 376.001 721.5L417.001 691C430.334 673.5 462.601 631.9 485.001 605.5Z" fill="#FFEDE0" stroke="#FD955D"/>
</svg>
