<svg width="1080" height="1080" viewBox="0 0 1080 1080" fill="none" xmlns="http://www.w3.org/2000/svg">
<path d="M597.027 605.5C574.627 579.1 561.36 581.166 557.527 585.5C540.326 583.097 567.36 616.499 583.027 633.5L601.027 682.5L611.527 701.5L622.027 712L642.027 744C658.861 761.667 693.127 796.3 695.527 793.5C698.527 790 697.527 787.5 699.027 780.5C700.527 773.5 702.027 773 703.027 771C704.027 769 708.527 769 710.527 768.5C712.127 768.1 723.861 765 729.527 763.5C733.527 760.667 742.227 754.2 745.027 751C748.527 747 743.027 746.5 741.527 744C740.027 741.5 735.027 740 731.527 737C728.727 734.6 713.36 725.667 706.027 721.5L665.027 691C651.693 673.5 619.427 631.9 597.027 605.5Z" fill="#FFEDE0" stroke="#FD955D"/>
</svg>
