<svg width="1080" height="1080" viewBox="0 0 1080 1080" fill="none" xmlns="http://www.w3.org/2000/svg">
<path d="M291.5 393C303.9 386.2 313.333 390.166 316.5 393L357 513C354.667 513.667 342 513.1 334 511.5C324 509.5 308 510.5 283.5 480C259 449.5 276 401.5 291.5 393Z" fill="#FFEDE0" stroke="#FD955D" stroke-width="3"/>
<path d="M792.5 393C780.1 386.2 770.667 390.166 767.5 393L727 513C729.333 513.667 742 513.1 750 511.5C760 509.5 776 510.5 800.5 480C825 449.5 808 401.5 792.5 393Z" fill="#FFEDE0" stroke="#FD955D" stroke-width="3"/>
<path d="M290.5 443C291.5 437.167 297.3 425.5 312.5 425.5C327.7 425.5 334.5 446.167 336 456.5C331.5 456.667 322 459.4 320 469C317.5 481 327 491 336 491.5C338.118 491.618 323 495.5 309.5 478" stroke="#FD955D" stroke-width="3" stroke-linecap="round"/>
<path d="M544.443 72.5V72.5166C647.127 73.4054 705.326 114.056 737.974 162.995C770.82 212.234 777.489 269.386 778.497 301.39C779.515 333.714 770.13 378.406 758.805 418.452C747.466 458.546 734.023 494.524 726.641 509.544C711.519 540.309 686.413 554.743 650.916 564.378C624.408 571.573 577.004 576.333 552.55 578.15L552.556 578.5H547.614L544.048 578.738L544.045 578.5H534.383L534.267 578.492C511.787 576.994 459.461 572.081 431.082 564.378C395.585 554.743 370.479 540.309 355.357 509.544C347.975 494.524 334.533 458.546 323.193 418.452C311.868 378.406 302.483 333.714 303.501 301.39C304.509 269.386 311.178 212.234 344.024 162.995C376.661 114.072 434.833 73.4324 537.453 72.5176V72.5H544.443Z" fill="#FFEDE0"/>
<path d="M544.443 72.5H545.943V71H544.443V72.5ZM544.443 72.5166H542.943V74.0037L544.43 74.0165L544.443 72.5166ZM737.974 162.995L739.221 162.163L739.221 162.163L737.974 162.995ZM778.497 301.39L779.996 301.342L779.996 301.342L778.497 301.39ZM758.805 418.452L760.248 418.86L760.248 418.86L758.805 418.452ZM726.641 509.544L727.987 510.206L727.987 510.206L726.641 509.544ZM650.916 564.378L651.309 565.826L651.309 565.826L650.916 564.378ZM552.55 578.15L552.439 576.655L551.026 576.759L551.05 578.176L552.55 578.15ZM552.556 578.5V580H554.081L554.055 578.475L552.556 578.5ZM547.614 578.5V577H547.564L547.514 577.003L547.614 578.5ZM544.048 578.738L542.548 578.757L542.567 580.341L544.148 580.235L544.048 578.738ZM544.045 578.5L545.545 578.482L545.527 577H544.045V578.5ZM534.383 578.5L534.282 579.997L534.332 580H534.383V578.5ZM534.267 578.492L534.367 576.996L534.366 576.996L534.267 578.492ZM431.082 564.378L430.689 565.826L430.689 565.826L431.082 564.378ZM355.357 509.544L354.011 510.206L354.011 510.206L355.357 509.544ZM323.193 418.452L321.75 418.86L321.75 418.86L323.193 418.452ZM303.501 301.39L302.002 301.342L302.002 301.342L303.501 301.39ZM344.024 162.995L342.777 162.163L342.777 162.163L344.024 162.995ZM537.453 72.5176L537.466 74.0175L538.953 74.0043V72.5176H537.453ZM537.453 72.5V71H535.953V72.5H537.453ZM544.443 72.5H542.943V72.5166H544.443H545.943V72.5H544.443ZM544.443 72.5166L544.43 74.0165C646.652 74.9014 704.373 115.33 736.726 163.828L737.974 162.995L739.221 162.163C706.28 112.782 647.601 71.9095 544.456 71.0167L544.443 72.5166ZM737.974 162.995L736.726 163.828C769.344 212.723 775.993 269.542 776.998 301.437L778.497 301.39L779.996 301.342C778.985 269.23 772.297 211.744 739.221 162.163L737.974 162.995ZM778.497 301.39L776.998 301.437C778.008 333.515 768.681 378.018 757.361 418.044L758.805 418.452L760.248 418.86C771.579 378.794 781.022 333.913 779.996 301.342L778.497 301.39ZM758.805 418.452L757.361 418.044C746.034 458.098 732.62 493.978 725.294 508.882L726.641 509.544L727.987 510.206C735.426 495.07 748.897 458.995 760.248 418.86L758.805 418.452ZM726.641 509.544L725.294 508.882C710.439 539.105 685.807 553.353 650.523 562.93L650.916 564.378L651.309 565.826C687.019 556.133 712.599 541.513 727.987 510.206L726.641 509.544ZM650.916 564.378L650.523 562.93C624.172 570.083 576.904 574.836 552.439 576.655L552.55 578.15L552.661 579.646C577.105 577.829 624.643 573.063 651.309 565.826L650.916 564.378ZM552.55 578.15L551.05 578.176L551.056 578.525L552.556 578.5L554.055 578.475L554.05 578.125L552.55 578.15ZM552.556 578.5V577H547.614V578.5V580H552.556V578.5ZM547.614 578.5L547.514 577.003L543.948 577.242L544.048 578.738L544.148 580.235L547.714 579.997L547.614 578.5ZM544.048 578.738L545.548 578.72L545.545 578.482L544.045 578.5L542.545 578.518L542.548 578.757L544.048 578.738ZM544.045 578.5V577H534.383V578.5V580H544.045V578.5ZM534.383 578.5L534.483 577.003L534.367 576.996L534.267 578.492L534.166 579.989L534.282 579.997L534.383 578.5ZM534.267 578.492L534.366 576.996C511.878 575.496 459.691 570.589 431.475 562.93L431.082 564.378L430.689 565.826C459.23 573.572 511.696 578.491 534.167 579.989L534.267 578.492ZM431.082 564.378L431.475 562.93C396.191 553.353 371.559 539.105 356.704 508.882L355.357 509.544L354.011 510.206C369.399 541.513 394.979 556.133 430.689 565.826L431.082 564.378ZM355.357 509.544L356.704 508.882C349.378 493.978 335.964 458.098 324.637 418.044L323.193 418.452L321.75 418.86C333.101 458.995 346.572 495.07 354.011 510.206L355.357 509.544ZM323.193 418.452L324.637 418.044C313.317 378.018 303.99 333.515 305 301.437L303.501 301.39L302.002 301.342C300.976 333.913 310.419 378.794 321.75 418.86L323.193 418.452ZM303.501 301.39L305 301.437C306.005 269.542 312.655 212.723 345.272 163.828L344.024 162.995L342.777 162.163C309.701 211.744 303.013 269.23 302.002 301.342L303.501 301.39ZM344.024 162.995L345.272 163.828C377.614 115.346 435.308 74.9282 537.466 74.0175L537.453 72.5176L537.44 71.0176C434.358 71.9365 375.707 112.798 342.777 162.163L344.024 162.995ZM537.453 72.5176H538.953V72.5H537.453H535.953V72.5176H537.453ZM537.453 72.5V74H544.443V72.5V71H537.453V72.5Z" fill="#FD955D"/>
<path d="M793.5 443C792.5 437.167 786.7 425.5 771.5 425.5C756.3 425.5 749.5 446.167 748 456.5C752.5 456.667 762 459.4 764 469C766.5 481 757 491 748 491.5C745.882 491.618 761 495.5 774.5 478" stroke="#FD955D" stroke-width="3" stroke-linecap="round"/>
</svg>
