<svg width="1080" height="1080" viewBox="0 0 1080 1080" fill="none" xmlns="http://www.w3.org/2000/svg">
<path d="M466.5 428.5C467.5 445.333 465.7 480.6 450.5 487" stroke="black" stroke-width="3" stroke-linecap="round"/>
<path d="M407.5 487.5C387.5 475.9 382.167 436.333 382 418L390 417.499C390 416.499 390.2 422.6 391 441C391.8 459.4 402.333 479.667 407.5 487.5Z" fill="black" stroke="black" stroke-width="3" stroke-linecap="round"/>
<path d="M408.5 417.5C342.5 412.3 351.667 444 364.5 460.5V462.5C346.499 452.1 342.334 433.833 342.501 426C347.168 417.333 369.201 400.3 420.001 401.5C468.5 402.645 493.333 432 499.5 446.5C495.833 439 474.5 422.7 408.5 417.5Z" fill="black"/>
<path d="M393 481C397.333 484.5 411 491.3 431 490.5C451 489.7 465.667 483.833 470.5 481M364.5 460.5C351.667 444 342.5 412.3 408.5 417.5C474.5 422.7 495.833 439 499.5 446.5C493.333 432 468.5 402.645 420.001 401.5C369.201 400.3 347.168 417.333 342.501 426C342.334 433.833 346.499 452.1 364.5 462.5V460.5Z" stroke="black" stroke-width="3" stroke-linecap="round"/>
<path d="M616 428.5C615 445.333 616.8 480.6 632 487" stroke="black" stroke-width="3" stroke-linecap="round"/>
<path d="M675 487.5C695 475.9 700.333 436.333 700.5 418L692.5 417.499C692.5 416.499 692.3 422.6 691.5 441C690.7 459.4 680.167 479.667 675 487.5Z" fill="black" stroke="black" stroke-width="3" stroke-linecap="round"/>
<path d="M674 417.5C740 412.3 730.833 444 718 460.5V462.5C736.001 452.1 740.166 433.833 739.999 426C735.332 417.333 713.299 400.3 662.499 401.5C614 402.645 589.167 432 583 446.5C586.667 439 608 422.7 674 417.5Z" fill="black"/>
<path d="M689.5 481C685.167 484.5 671.5 491.3 651.5 490.5C631.5 489.7 616.833 483.833 612 481M718 460.5C730.833 444 740 412.3 674 417.5C608 422.7 586.667 439 583 446.5C589.167 432 614 402.645 662.499 401.5C713.299 400.3 735.332 417.333 739.999 426C740.166 433.833 736.001 452.1 718 462.5V460.5Z" stroke="black" stroke-width="3" stroke-linecap="round"/>
</svg>
