<svg width="30" height="30" viewBox="0 0 30 30" fill="none" xmlns="http://www.w3.org/2000/svg">
<path d="M6.32373 24.0757C6.33081 24.8789 6.45592 25.665 6.63651 26.421C6.8584 27.3492 7.45031 27.5888 8.31133 27.1958C8.57748 27.0748 8.85662 26.9367 9.06258 26.7379C9.80262 26.0232 10.5633 25.3209 11.2213 24.5343C11.8498 23.7836 12.3514 22.9285 12.9251 22.1306C13.1239 21.8544 13.3446 21.58 13.6049 21.3646C13.9914 21.0442 14.5267 20.9916 14.8365 21.2472C15.3069 21.6355 15.7566 22.0527 16.1844 22.4871C16.7875 23.099 17.3375 23.7641 17.9554 24.3596C18.8105 25.1846 19.7896 25.8332 20.9114 26.2575C22.1289 26.7178 23.1717 26.4233 24.1017 25.5729C25.0861 24.6735 25.4042 23.5287 25.3334 22.2398C25.2248 20.2522 24.6712 18.3673 23.9088 16.5508C23.5447 15.6833 23.6987 15.0601 24.3691 14.457C25.0808 13.8161 25.7955 13.1687 26.4228 12.4488C26.8654 11.9406 27.2696 11.3464 27.5045 10.7208C27.992 9.42193 27.2537 8.20446 25.897 7.95188C25.4703 7.8728 25.0182 7.86572 24.5839 7.90231C23.3405 8.00854 22.2216 8.52314 21.0944 9.01591C20.385 9.32632 19.6562 9.59602 18.9221 9.8427C18.5025 9.98374 18.1319 9.79903 17.9017 9.43963C17.7465 9.19767 17.6273 8.91086 17.5754 8.62877C17.4119 7.73589 17.3287 6.82648 17.1357 5.94127C16.9386 5.03599 16.745 4.1077 16.3721 3.26911C15.9312 2.27708 15.036 2.03453 14.0888 2.56094C13.6055 2.82945 13.1487 3.20124 12.7852 3.61847C11.9023 4.63175 11.252 5.79728 11.0148 7.13159C10.8436 8.09352 10.7734 9.07492 10.6967 10.0504C10.6306 10.8914 10.3467 11.2354 9.50755 11.3564C8.8519 11.4508 8.19389 11.5305 7.53883 11.632C6.05994 11.8604 4.66484 12.3325 3.5005 13.2927C3.06202 13.6544 2.68551 14.1484 2.42526 14.6559C2.04639 15.3942 2.24822 15.8238 3.0331 16.0669C3.63859 16.2546 4.2783 16.3325 4.90326 16.4564C5.38423 16.5526 5.87759 16.6057 6.34321 16.7491C6.8584 16.9079 7.12337 17.2921 7.07321 17.7311C6.99531 18.4098 6.87197 19.0831 6.79348 19.7618C6.62824 21.1994 6.31134 22.6305 6.32373 24.0757ZM14.9097 24.5484C14.6607 24.2587 14.2045 24.2835 13.9897 24.5986C13.5412 25.2554 13.1239 25.8774 12.6636 26.464C11.8557 27.4938 10.9127 28.3932 9.76544 29.0489C9.00652 29.482 8.20333 29.7694 7.30986 29.6714C6.19921 29.5493 5.39367 28.9633 4.85487 28.0008C4.42702 27.2353 4.22873 26.3985 4.18919 25.5328C4.093 23.4089 4.29424 21.3145 4.86136 19.2602C4.93336 18.9976 4.76045 18.7314 4.49193 18.6895C3.99562 18.6128 3.51407 18.5443 3.04727 18.4192C2.49726 18.2717 1.94252 18.0734 1.45152 17.7901C0.294257 17.1233 -0.23569 15.7347 0.0989198 14.4417C0.402253 13.2691 1.03902 12.3118 1.99977 11.5695C3.55715 10.3656 5.31931 9.68631 7.27681 9.50986C7.32756 9.50513 7.37891 9.50041 7.42966 9.49687C7.972 9.4532 8.4087 9.03361 8.47539 8.49363C8.54798 7.89818 8.62174 7.30981 8.73151 6.72852C9.07202 4.92269 9.9295 3.36058 11.1234 1.98142C11.8427 1.1505 12.7114 0.523182 13.7772 0.195063C15.4515 -0.320721 17.0354 0.198013 18.0776 1.61317C18.7185 2.48363 19.0495 3.48333 19.2561 4.52611C19.3735 5.11861 19.4721 5.71466 19.5718 6.32191C19.6468 6.7775 20.1395 7.03303 20.5544 6.8312C20.8436 6.69075 21.1298 6.56092 21.4272 6.46296C22.3791 6.149 23.3493 5.88403 24.3248 5.6521C25.2366 5.43493 26.1371 5.61551 27.0035 5.91885C29.3263 6.73206 30.4416 9.08082 29.6556 11.4656C29.3097 12.5154 28.6818 13.39 27.9341 14.1826C27.4797 14.6642 27.0064 15.1321 26.5095 15.5694C26.2233 15.8214 26.1826 16.041 26.3154 16.3968C26.9356 18.0581 27.3865 19.7665 27.5889 21.531C27.8344 23.6673 27.3682 25.5942 25.7842 27.1374C24.1165 28.762 22.1873 29.2589 19.9731 28.3849C17.93 27.5788 16.3249 26.1949 14.9144 24.5537C14.9127 24.552 14.9109 24.5502 14.9097 24.5484Z" fill="#8E8E93"/>
<path d="M14.921 19.2508C14.3403 19.2431 13.7997 19.069 13.2827 18.8159C12.9959 18.6754 12.7593 18.375 12.5763 18.0971C12.3409 17.7383 12.3828 17.334 12.6578 16.9982C12.9346 16.6607 13.3435 16.5208 13.7165 16.7238C15.7908 17.8498 16.5332 15.9932 16.5728 15.9307C16.8513 15.494 17.2939 15.5636 17.6693 15.7849C18.2553 16.1024 17.9531 17.5506 17.6215 17.9549C17.0355 18.6677 16.1963 19.2685 14.921 19.2508Z" fill="#8E8E93"/>
<path d="M19.5279 13.6375C19.5432 14.2866 19.0156 14.8537 18.4042 14.8449C17.8135 14.8372 17.3243 14.3143 17.3137 13.6805C17.3025 12.9983 17.784 12.4442 18.3948 12.4359C19.0021 12.4277 19.5119 12.9688 19.5279 13.6375Z" fill="#8E8E93"/>
<path d="M11.4256 13.5299C12.0494 13.5104 12.5888 14.0592 12.587 14.7113C12.5847 15.3292 12.0706 15.8574 11.4705 15.8586C10.8732 15.8592 10.3704 15.3434 10.3539 14.7119C10.3374 14.0876 10.826 13.5488 11.4256 13.5299Z" fill="#8E8E93"/>
</svg>
