<svg width="36" height="30" viewBox="0 0 36 30" fill="none" xmlns="http://www.w3.org/2000/svg">
<path d="M24.6032 9.98939C23.9915 10.5094 23.3843 11.2524 23.1469 12.0658C23.0969 12.2358 23.3006 12.3676 23.4319 12.2492C24.0525 11.6876 24.5849 10.9084 24.8803 10.1896C24.9502 10.0201 24.743 9.87043 24.6032 9.98939ZM10.4239 15.537C9.48165 15.3338 8.08087 15.4532 7.18717 15.7615C6.9661 15.8379 7.01021 16.163 7.24368 16.1769C8.238 16.2354 9.42366 16.2156 10.4299 15.9529C10.6465 15.8959 10.6425 15.5846 10.4239 15.537ZM6.51355 7.685C5.47461 7.66715 4.49863 7.86096 3.74768 8.2347C1.4532 9.37624 0.951079 11.9468 2.71073 13.7972C3.21334 14.3261 3.88101 14.6983 4.47434 15.1409C4.73209 15.3333 4.95663 15.2317 5.21438 15.0993C5.90932 14.7419 6.60772 14.3831 7.33191 14.0916C8.28459 13.7079 9.28883 13.5974 10.3094 13.7531C11.0098 13.8601 11.6859 14.048 12.2222 14.5481C12.9365 15.2138 12.9717 16.1546 12.2901 16.853C12.079 17.0696 11.8188 17.2897 11.5397 17.3789C10.878 17.5896 10.1994 17.8062 9.51337 17.8701C8.12598 17.9995 6.75692 17.7953 5.41761 17.4072C5.18117 17.3383 4.97348 17.2738 4.75043 17.5137C3.31545 19.0563 2.68892 20.8843 2.89908 22.9607C3.03539 24.3055 3.9167 25.2458 4.95118 26.0052C6.79906 27.3618 8.91658 27.8302 11.163 27.5789C13.8832 27.2741 16.3433 26.257 18.5307 24.6004C19.0571 24.2019 19.5766 23.7939 20.1089 23.4038C20.6963 22.9736 21.0368 22.9885 21.6108 23.4341C22.1159 23.8262 22.62 24.2192 23.1301 24.6059C24.6007 25.7206 26.1809 26.6461 27.8999 27.3246C28.8853 27.7132 29.9074 28.0077 30.9682 27.9685C33.0218 27.8922 34.1048 27.0381 34.2813 25.0525C34.4607 23.0341 33.7816 21.2967 32.3209 19.9257C31.6542 19.3002 30.817 18.8535 30.0447 18.3455C29.7538 18.1537 29.4123 18.0387 29.1188 17.8498C28.6598 17.5544 28.5493 17.1777 28.868 16.7489C29.1173 16.4133 29.4628 16.1308 29.8113 15.8904C30.5226 15.3992 31.3077 15.0071 31.9838 14.4748C33.0099 13.6658 33.7306 12.6145 34.0552 11.3267C34.2451 10.5733 34.0508 9.91058 33.4282 9.45257C33.0213 9.15319 32.5538 8.89048 32.0725 8.74624C30.4234 8.25205 28.7708 8.40273 27.1287 8.83942C26.8665 8.90932 26.7827 9.0605 26.7237 9.30883C26.58 9.90959 26.4318 10.5133 26.2181 11.0913C25.779 12.2774 25.1167 13.3154 23.9846 13.9612C22.7082 14.6889 21.5528 14.0827 21.4061 12.6249C21.3878 12.442 21.4002 12.2531 21.4225 12.0702C21.5479 11.0293 21.9687 10.1054 22.7291 9.39954C23.3278 8.84438 24.0213 8.38489 24.7038 7.92986C24.973 7.74993 25.1167 7.58983 25.1202 7.25425C25.1336 6.12164 24.9437 5.03958 24.4441 4.01551C23.5663 2.21621 22.108 1.49897 20.1654 2.00704C17.9884 2.57607 16.2347 3.78849 14.9886 5.68049C14.372 6.61781 13.9343 7.63444 13.7246 8.74822C13.5586 9.62854 12.8939 9.90314 12.1038 9.45357C11.9962 9.3921 11.8951 9.32023 11.788 9.25827C10.1568 8.30905 8.41942 7.71275 6.51355 7.685ZM32.0522 16.8371C31.8029 17.0057 31.7969 17.3725 32.0413 17.5484C32.5474 17.9128 33.046 18.2587 33.4728 18.6776C35.5621 20.7307 36.4335 23.2046 35.8099 26.1122C35.3569 28.2233 33.8505 29.4471 31.5243 29.6588C29.7964 29.8159 28.1681 29.3762 26.5983 28.6912C24.6384 27.8357 22.8237 26.7437 21.1979 25.3479C21.1969 25.3474 21.1964 25.3464 21.1954 25.3459C21.0304 25.2046 20.789 25.1942 20.6096 25.3162C20.5099 25.3841 20.4103 25.4535 20.3146 25.5283C18.2031 27.1764 15.8476 28.3214 13.2513 28.9812C10.7778 29.6092 8.34655 29.5626 5.97574 28.5519C3.09587 27.3236 1.43882 25.1823 1.2579 22.0199C1.15926 20.289 1.72384 18.7306 2.76029 17.3447C2.85794 17.2148 2.95906 17.0875 3.06662 16.9541C3.23118 16.7499 3.19104 16.448 2.9779 16.2944C2.82424 16.1838 2.67355 16.0753 2.52386 15.9648C1.46708 15.1851 0.674492 14.1992 0.247715 12.9496C-0.466552 10.8573 0.397906 8.54004 2.40142 7.1804C3.71397 6.28967 5.19505 5.99227 6.75692 6.03539C8.53788 6.08446 10.2222 6.5152 11.7984 7.35289L11.8014 7.35488C11.9942 7.45699 12.2331 7.36281 12.303 7.15661C12.3278 7.08226 12.3531 7.00939 12.3804 6.93752C13.8015 3.14312 16.5143 0.827827 20.4807 0.0962105C22.6235 -0.299339 24.3747 0.538847 25.6045 2.35153C26.4332 3.57387 26.8377 4.95085 26.9324 6.42152C26.9433 6.58559 26.9611 6.74966 26.9825 6.91323C26.9874 6.94991 27.0216 6.98312 27.0499 7.02971C27.6734 6.94049 28.3005 6.83343 28.931 6.76453C30.3689 6.6069 31.7712 6.77741 33.1313 7.2721C33.3053 7.33554 33.4768 7.4099 33.6423 7.49317C35.6474 8.50385 36.4161 10.3448 35.6726 12.4683C35.119 14.0495 34.1236 15.3243 32.7833 16.3251C32.5464 16.5021 32.302 16.6691 32.0522 16.8371Z" fill="#8E8E93"/>
<path d="M19.2117 21.4347C17.9561 21.4337 16.5871 20.4904 16.1687 19.3752C15.9719 18.8508 16.1137 18.3496 16.5207 18.132C16.9093 17.9248 17.3737 18.0621 17.7098 18.4864C17.7608 18.5509 17.804 18.6218 17.852 18.6882C18.5931 19.7117 19.6761 19.7985 20.6001 18.9117C20.7775 18.7412 20.9495 18.5583 21.1518 18.422C21.4685 18.2089 21.811 18.1965 22.1327 18.427C22.4574 18.6589 22.5634 19.0039 22.437 19.3554C22.3215 19.6761 22.1441 19.9968 21.9181 20.2505C21.1899 21.0684 20.2189 21.3658 19.2117 21.4347Z" fill="#8E8E93"/>
<path d="M25.0209 16.6182C24.9862 17.1034 24.8326 17.5832 24.2977 17.8326C23.93 18.0036 23.4829 17.9025 23.2266 17.5956C22.8464 17.1406 22.9108 16.6365 23.121 16.1398C23.3346 15.6367 23.7897 15.3943 24.2591 15.5009C24.7305 15.6075 25.0249 16.0179 25.0209 16.6182Z" fill="#8E8E93"/>
<path d="M16.4252 15.7926C16.3905 16.2779 16.2369 16.7577 15.702 17.007C15.3342 17.178 14.8872 17.0769 14.6309 16.7701C14.2507 16.315 14.3151 15.8109 14.5253 15.3143C14.7389 14.8112 15.194 14.5688 15.6634 14.6754C16.1348 14.7819 16.4292 15.1923 16.4252 15.7926Z" fill="#8E8E93"/>
</svg>
