<svg width="23" height="30" viewBox="0 0 23 30" fill="none" xmlns="http://www.w3.org/2000/svg">
<path d="M5.15389 1.66881C4.64181 1.67994 4.20385 2.09074 4.22122 2.54263C4.24155 3.06427 4.51347 3.44513 4.85571 3.43143C5.34703 3.41132 5.88283 2.94831 5.88114 2.54477C5.87902 2.05351 5.55203 1.65982 5.15389 1.66881ZM19.6772 4.89023C20.1343 4.88338 20.6091 4.39897 20.5887 3.96035C20.5688 3.52344 20.0301 3.00993 19.598 3.01635C19.169 3.02234 18.7717 3.44128 18.7725 3.88717C18.7734 4.39213 19.2287 4.89665 19.6772 4.89023ZM18.4421 19.5492C18.3684 18.4533 18.3388 17.6163 18.2511 16.7857C17.9944 14.3589 17.3642 12.0306 16.326 9.82592C15.6954 8.48651 14.8106 7.34352 13.5577 6.52747C12.5649 5.88045 11.5348 5.71056 10.4742 6.34774C10.021 6.61948 9.57837 6.91646 9.16286 7.24382C8.36191 7.87458 7.76851 8.69534 7.18103 9.52295C5.39786 12.0327 4.22249 14.8549 3.05178 17.6788C2.43762 19.1607 1.97467 20.6922 1.71249 22.2781C1.5994 22.9607 1.51215 23.65 1.66378 24.3471C1.85565 25.2278 2.41136 25.6977 3.29914 25.6861C3.51091 25.6835 3.72269 25.6788 3.93362 25.6656C4.7909 25.6112 5.52832 25.9091 6.16662 26.4649C6.47285 26.7315 6.74774 27.0354 7.03999 27.3191C7.24287 27.5163 7.44237 27.7192 7.65965 27.8989C7.97605 28.1599 8.33099 28.2062 8.69483 28.0046C8.95658 27.8595 9.21029 27.6982 9.46062 27.533C9.79989 27.3092 10.1226 27.0593 10.4695 26.8484C11.5119 26.2133 12.5903 26.1397 13.6979 26.6746C14.0155 26.8282 14.3336 26.9819 14.6547 27.1286C15.1668 27.3627 15.6615 27.299 16.1041 26.9712C16.3853 26.7623 16.6577 26.5244 16.8788 26.2535C17.4959 25.4961 17.8996 24.6193 18.0211 23.6488C18.2028 22.2028 18.3218 20.7491 18.4421 19.5492ZM6.9108 4.42123C7.1624 4.8928 7.40764 5.35282 7.66474 5.83466C7.76342 6.01953 8.00401 6.06874 8.16623 5.93779C8.21197 5.90056 8.25814 5.86376 8.30431 5.82739C9.13024 5.17994 9.98159 4.58041 11.0346 4.36559C12.2082 4.12596 13.2752 4.39255 14.2383 5.08579C14.6589 5.38834 15.0634 5.71227 15.4908 6.04905C15.6911 6.20653 15.972 6.20824 16.1731 6.05248L17.2087 5.25226C17.357 5.13757 17.4277 4.95143 17.3943 4.76913C17.3417 4.48114 17.2867 4.20812 17.2858 3.93553C17.2829 2.96414 17.7653 2.2709 18.6226 1.87336C19.8102 1.32262 21.6785 2.1896 22.0686 3.44342C22.4837 4.77854 21.3668 6.35074 19.9237 6.46157C19.4883 6.49495 19.277 6.46842 18.778 6.28484C18.6082 6.22236 18.4176 6.26558 18.2918 6.39653C17.9597 6.74229 17.6391 7.07565 17.3214 7.40643C17.16 7.57461 17.1164 7.82537 17.2121 8.03848C17.656 9.02656 18.9072 11.9133 19.4972 14.3311C20.2503 18.0014 20.1584 21.6551 19.1338 25.2689C18.836 26.3182 18.299 27.2318 17.473 27.9481C16.387 28.8904 15.1905 29.1758 13.8533 28.516C13.5687 28.3752 13.2858 28.2301 12.9965 28.0988C12.4492 27.8506 11.8999 27.8429 11.3713 28.1445C11.0651 28.3191 10.7762 28.5245 10.4822 28.7205C10.2611 28.8673 10.0511 29.0316 9.82488 29.1686C8.48728 29.9786 7.35469 29.8494 6.22252 28.7573C5.91672 28.4621 5.62277 28.154 5.32501 27.8501C4.90357 27.4201 4.40801 27.2245 3.79809 27.2737C3.3974 27.3058 2.97977 27.3152 2.58883 27.2378C1.1733 26.9575 0.197005 25.7619 0.0385947 24.2072C-0.101179 22.8327 0.155496 21.5061 0.537968 20.207C1.8798 15.6508 3.80359 11.3759 6.62787 7.54551C6.62829 7.54508 6.62829 7.54465 6.62872 7.54422C6.69183 7.45821 6.69352 7.34139 6.64058 7.24895C6.31189 6.67639 5.78118 5.803 5.49612 5.33741C5.38261 5.15169 5.18312 5.03915 4.9671 5.03444C3.38724 5.00064 2.2377 3.39292 2.86499 1.84683C3.27923 0.826225 4.51644 -0.290659 5.79261 0.0687981C6.23396 0.192896 6.60923 0.403437 6.89683 0.758186C7.57664 1.59564 7.96165 3.02961 6.9485 4.12211C6.87353 4.20298 6.85871 4.32366 6.9108 4.42123Z" fill="#8E8E93"/>
<path d="M11.3833 15.6591C10.3808 15.6556 9.3418 14.6017 9.3418 13.5879C9.3418 13.1882 9.52435 12.9118 9.85515 12.8108C10.1804 12.7115 10.4854 12.839 10.7056 13.1814C10.82 13.3598 10.9013 13.561 11.0246 13.7317C11.2601 14.0582 11.3927 14.074 11.7252 13.8507C11.8857 13.7428 12.0369 13.6183 12.2025 13.519C12.466 13.3611 12.7387 13.3393 12.989 13.5451C13.2411 13.7522 13.258 14.0291 13.1729 14.3218C12.9543 15.0702 12.161 15.6616 11.3833 15.6591Z" fill="#8E8E93"/>
<path d="M15.6678 12.4215C15.6538 12.9611 15.3078 13.3351 14.8292 13.3287C14.3645 13.3218 14.0024 12.8961 14.0265 12.3855C14.0507 11.875 14.448 11.4766 14.905 11.5049C15.3641 11.5327 15.6809 11.9135 15.6678 12.4215Z" fill="#8E8E93"/>
<path d="M8.97302 11.9382C8.95904 12.4107 8.58292 12.7877 8.1331 12.7808C7.70108 12.774 7.3491 12.3948 7.35757 11.9459C7.36647 11.4756 7.74513 11.0986 8.19918 11.108C8.64518 11.1175 8.98657 11.4833 8.97302 11.9382Z" fill="#8E8E93"/>
</svg>
