<?xml version="1.0" encoding="UTF-8"?>
<svg xmlns="http://www.w3.org/2000/svg" version="1.1" viewBox="0 0 500 500">
  <!-- Generator: Adobe Illustrator 30.0.0, SVG Export Plug-In . SVG Version: 2.1.1 Build 123)  -->
  <defs>
    <style>
      .st0 {
        fill: #f59080;
        stroke: #d85441;
        stroke-miterlimit: 10;
      }

      .st1 {
        fill: #131321;
      }

      .st2 {
        fill: #fff;
      }

      .st3, .st4 {
        isolation: isolate;
      }

      .st5 {
        fill: #3268b1;
      }

      .st4 {
        fill: #cfd4cd;
        mix-blend-mode: multiply;
      }
    </style>
  </defs>
  <g class="st3">
    <g id="oreja-derecha">
      <g>
        <path class="st2" d="M358.98,352.02s40.75-29.07,61.71-70.96c27.24-54.43,20.12-123.2-26.45-140.16-46.58-16.95-95.12,31.56-109.25,90.77-10.87,45.56,1.66,94.03,1.66,94.03l72.33,26.32h0Z"/>
        <path class="st0" d="M376.2,195.22c68.05,24.77-39.89,147.8-39.89,147.8l-12.47-4.54-.91-.33-12.47-4.54s-4.6-164,63.45-139.23l2.29.83h0Z"/>
        <path class="st4" d="M284.29,314.25c1.05,5.57,2.21,11.88,2.21,11.88l72.33,26.32s4.83-4,9.22-7.59c0,0-24.5-14.38-42.02-20.27-17.52-5.88-41.73-10.35-41.73-10.35h-.01Z"/>
      </g>
    </g>
    <g id="oreja-izquierda">
      <g>
        <path class="st2" d="M218.51,326.32s8.26-49.37-6.54-93.81c-19.23-57.75-72.89-101.35-117.81-80.4-44.92,20.95-44.94,89.58-13.07,141.43,24.53,39.91,67.66,65.31,67.66,65.31l69.76-32.53h0Z"/>
        <path class="st0" d="M119.82,203.27c65.63-30.61,76.31,132.72,76.31,132.72l-12.03,5.61-.88.41-12.03,5.61s-119.22-112.71-53.58-143.31l2.21-1.03h0Z"/>
        <path class="st4" d="M141.1,353.89c4.68,3.19,7.86,5.38,7.86,5.38l69.76-32.53s.37-3.84.93-9.48c0,0-22.17,3.64-42.76,12.9-20.59,9.27-35.78,23.72-35.78,23.72h0Z"/>
      </g>
    </g>
    <g id="cuerpo">
      <path class="st2" d="M441.38,500H77.67c0-100.44,81.42-181.86,181.86-181.86s181.86,81.42,181.86,181.86h-.01Z"/>
    </g>
    <g id="cara">
      <g>
        <circle class="st1" cx="186.6" cy="423.86" r="14.79"/>
        <circle class="st1" cx="329.65" cy="418.47" r="14.79"/>
        <path class="st1" d="M225.14,428.56s5.1-10.09,35.01-10.09,32.38,10.09,32.38,10.09c0,0-7.64,25.95-33.01,25.95s-34.38-25.95-34.38-25.95h0Z"/>
        <path class="st5" d="M238.58,453.79c-2.18,8.84-2.5,20.02,3.9,27.33,3.11,3.55,8.11,5.61,12.73,6.06s9.04-.91,12.56-3.72c4.31-3.44,5.87-8.76,6.67-14,.29-1.89-2.6-2.7-2.89-.8-.62,4.05-1.55,8.36-4.5,11.41-2.64,2.73-6.4,4.2-10.18,4.2-4.12,0-8.53-1.64-11.54-4.5s-4.32-7.12-4.88-11c-.68-4.72-.11-9.56,1.02-14.17.46-1.87-2.43-2.67-2.89-.8h0Z"/>
      </g>
    </g>
  </g>
</svg>