<svg width="373" height="64" viewBox="0 0 373 64" fill="none" xmlns="http://www.w3.org/2000/svg">
<path d="M33.5291 31.6916L36.5899 14.8359H53.7042V45.0124H42.4527V24.8372L38.7453 45.0124H28.1404L24.821 24.8372V45.0124H13.5695V14.8359H30.9426L33.5291 31.6916ZM69.9746 33.7177V14.8359H81.3986V34.9679C81.3986 35.9163 81.2549 36.8791 80.9675 37.8562C80.6801 38.8046 80.2059 39.753 79.5449 40.7014C78.8839 41.6498 78.0648 42.4833 77.0876 43.2018C76.1392 43.9203 74.9178 44.5094 73.4234 44.9693C71.9576 45.4291 70.3195 45.659 68.5089 45.659C66.7271 45.659 65.0889 45.4291 63.5944 44.9693C62.1287 44.5094 60.9073 43.9203 59.9302 43.2018C58.9818 42.4833 58.177 41.6498 57.516 40.7014C56.855 39.753 56.3808 38.8046 56.0934 37.8562C55.806 36.8791 55.6623 35.9163 55.6623 34.9679V14.8359H67.0863V33.7177C67.0863 34.1776 67.2156 34.5512 67.4743 34.8386C67.7617 35.0972 68.1209 35.2266 68.552 35.2266C68.9831 35.2266 69.328 35.0972 69.5866 34.8386C69.8453 34.5512 69.9746 34.1776 69.9746 33.7177ZM101.347 31.1312V14.8359H112.599V45.0124H98.6312L94.5789 27.6393V45.0124H83.3274V14.8359H97.8552L101.347 31.1312ZM125.552 14.8359C127.276 14.8359 128.914 14.9939 130.466 15.3101C132.018 15.6262 133.512 16.1579 134.949 16.9051C136.386 17.6524 137.622 18.5864 138.657 19.7072C139.72 20.8281 140.554 22.2507 141.157 23.975C141.789 25.6994 142.105 27.625 142.105 29.7517C142.105 31.8209 141.789 33.7034 141.157 35.399C140.525 37.0946 139.663 38.5316 138.571 39.7099C137.507 40.8595 136.257 41.851 134.82 42.6845C133.412 43.4892 131.917 44.0783 130.337 44.4519C128.785 44.8256 127.19 45.0124 125.552 45.0124H114.817V14.8359H125.552ZM126.069 35.1403C127.42 35.1403 128.497 34.7236 129.302 33.8902C130.135 33.0567 130.552 31.6916 130.552 29.7948C130.552 27.8692 130.135 26.4897 129.302 25.6563C128.497 24.8229 127.42 24.4061 126.069 24.4061V35.1403ZM146.853 18.6295C149.871 15.6693 153.779 14.1892 158.579 14.1892C163.378 14.1892 167.273 15.6693 170.262 18.6295C173.279 21.5897 174.788 25.3545 174.788 29.9241C174.788 34.4937 173.279 38.2586 170.262 41.2187C167.273 44.1789 163.378 45.659 158.579 45.659C153.779 45.659 149.871 44.1789 146.853 41.2187C143.864 38.2586 142.37 34.4937 142.37 29.9241C142.37 25.3545 143.864 21.5897 146.853 18.6295ZM155.518 33.2866C156.294 34.1201 157.314 34.5368 158.579 34.5368C159.843 34.5368 160.864 34.1201 161.64 33.2866C162.416 32.4532 162.804 31.3324 162.804 29.9241C162.804 28.5159 162.416 27.395 161.64 26.5616C160.864 25.7282 159.843 25.3114 158.579 25.3114C157.314 25.3114 156.294 25.7282 155.518 26.5616C154.742 27.395 154.354 28.5159 154.354 29.9241C154.354 31.3324 154.742 32.4532 155.518 33.2866ZM211.607 31.6916L214.668 14.8359H231.783V45.0124H220.531V24.8372L216.824 45.0124H206.219L202.899 24.8372V45.0124H191.648V14.8359H209.021L211.607 31.6916ZM256.028 6.30025L249.907 12.9822H241.759L245.337 6.30025H256.028ZM255.037 14.8359L263.831 45.0124H253.054L251.502 40.2703H244.345L243.095 45.0124H232.534L241.5 14.8359H255.037ZM246.113 31.6485H249.734L247.837 24.4924L246.113 31.6485ZM278.226 33.6315V27.3376H290.943V40.1841C289.765 41.6786 288.026 42.9719 285.727 44.064C283.428 45.1273 280.87 45.659 278.054 45.659C276.071 45.659 274.131 45.2998 272.234 44.5813C270.337 43.8628 268.613 42.8713 267.061 41.6067C265.537 40.3135 264.302 38.6753 263.353 36.6923C262.405 34.6805 261.931 32.4819 261.931 30.0966C261.931 27.6537 262.391 25.412 263.31 23.3715C264.23 21.331 265.437 19.6497 266.931 18.3277C268.455 17.0057 270.165 15.9855 272.061 15.267C273.987 14.5485 275.97 14.1892 278.01 14.1892C279.649 14.1892 281.229 14.376 282.752 14.7497C284.276 15.0945 285.483 15.5113 286.374 15.9998V26.3029H285.856C285.511 25.8431 284.822 25.3689 283.787 24.8803C282.781 24.363 281.646 24.1044 280.381 24.1044C278.6 24.1044 277.105 24.7079 275.898 25.915C274.72 27.0933 274.131 28.6165 274.131 30.4845C274.131 32.2664 274.662 33.7321 275.726 34.8817C276.818 36.0025 278.197 36.5629 279.864 36.5629H280.08V34.1488C280.08 33.804 279.879 33.6315 279.476 33.6315H278.226ZM303.558 45.0124H292.306V14.8359H303.558V45.0124ZM322.548 34.9248C323.727 34.9248 324.761 34.6805 325.652 34.1919C326.543 33.6746 327.175 33.0711 327.549 32.3813H327.98V44.1071C325.796 45.1417 323.296 45.659 320.479 45.659C319.128 45.659 317.749 45.4722 316.341 45.0986C314.932 44.7537 313.524 44.1645 312.116 43.3311C310.736 42.4977 309.501 41.4918 308.409 40.3135C307.345 39.1351 306.469 37.655 305.779 35.8732C305.118 34.0626 304.787 32.0796 304.787 29.9241C304.787 27.7399 305.103 25.7569 305.736 23.975C306.397 22.1645 307.245 20.67 308.279 19.4917C309.314 18.3134 310.507 17.3218 311.857 16.5171C313.208 15.6837 314.559 15.0945 315.91 14.7497C317.289 14.376 318.654 14.1892 320.005 14.1892C323.138 14.1892 325.753 14.7209 327.851 15.7843L327.808 27.3376H327.42C327.104 26.7915 326.514 26.2311 325.652 25.6563C324.819 25.0528 323.799 24.751 322.591 24.751C321.04 24.751 319.746 25.2396 318.712 26.2167C317.677 27.1651 317.16 28.4009 317.16 29.9241C317.16 31.4186 317.691 32.6256 318.755 33.5453C319.847 34.465 321.111 34.9248 322.548 34.9248ZM333.478 18.6295C336.495 15.6693 340.404 14.1892 345.203 14.1892C350.003 14.1892 353.897 15.6693 356.886 18.6295C359.904 21.5897 361.412 25.3545 361.412 29.9241C361.412 34.4937 359.904 38.2586 356.886 41.2187C353.897 44.1789 350.003 45.659 345.203 45.659C340.404 45.659 336.495 44.1789 333.478 41.2187C330.489 38.2586 328.994 34.4937 328.994 29.9241C328.994 25.3545 330.489 21.5897 333.478 18.6295ZM342.143 33.2866C342.918 34.1201 343.939 34.5368 345.203 34.5368C346.468 34.5368 347.488 34.1201 348.264 33.2866C349.04 32.4532 349.428 31.3324 349.428 29.9241C349.428 28.5159 349.04 27.395 348.264 26.5616C347.488 25.7282 346.468 25.3114 345.203 25.3114C343.939 25.3114 342.918 25.7282 342.143 26.5616C341.367 27.395 340.979 28.5159 340.979 29.9241C340.979 31.3324 341.367 32.4532 342.143 33.2866Z" fill="white"/>
<path d="M361.386 35.0103L359.469 43.3235C359.344 43.8487 359.462 44.4119 359.788 44.844L364.86 51.7143C365.26 52.2559 364.775 52.9949 364.119 52.844L355.796 50.9344C355.264 50.8165 354.715 50.93 354.275 51.2486L347.416 56.3224C346.875 56.7206 346.125 56.2291 346.283 55.5795L348.199 47.2664C348.324 46.7412 348.206 46.178 347.881 45.7458L342.809 38.8756C342.409 38.3339 342.894 37.5949 343.55 37.7459L351.873 39.6555C352.405 39.7733 352.954 39.6599 353.394 39.3413L360.253 34.2675C360.794 33.8693 361.544 34.3608 361.386 35.0103Z" fill="#FFC702"/>
<path d="M10.1805 3.10611L10.495 3.51636C13.1633 7.03377 17.231 9.2171 21.64 9.47986L22.1385 9.51219C22.5016 9.53397 22.6409 9.99179 22.3514 10.2121L21.9554 10.5165C18.4464 13.1937 16.2768 17.2687 16.0193 21.6762L15.9865 22.1921C15.9647 22.5552 15.5017 22.696 15.2867 22.405L14.9721 21.9947C12.3039 18.4773 8.23617 16.294 3.82712 16.0312L3.32861 15.9989C2.96554 15.9771 2.82627 15.5193 3.1157 15.299L3.51177 14.9946C7.02071 12.3174 9.19032 8.24237 9.44781 3.83492L9.4806 3.31901C9.50239 2.95594 9.96545 2.81507 10.1805 3.10611Z" fill="#FFC702"/>
</svg>
